<svg width="37" height="37" viewBox="0 0 37 37" fill="none" xmlns="http://www.w3.org/2000/svg">
<circle cx="18.4167" cy="18.5834" r="18.4167" fill="#61DAFB"/>
<g clip-path="url(#clip0_5_119)">
<path d="M18.2478 20.3099C19.2125 20.3099 19.9947 19.5369 19.9947 18.5834C19.9947 17.6299 19.2125 16.8569 18.2478 16.8569C17.283 16.8569 16.5009 17.6299 16.5009 18.5834C16.5009 19.5369 17.283 20.3099 18.2478 20.3099Z" fill="black"/>
<path d="M18.2478 22.1206C23.4247 22.1206 27.6214 20.5369 27.6214 18.5834C27.6214 16.6299 23.4247 15.0463 18.2478 15.0463C13.0709 15.0463 8.87415 16.6299 8.87415 18.5834C8.87415 20.5369 13.0709 22.1206 18.2478 22.1206Z" stroke="black"/>
<path d="M15.1483 20.352C17.7367 24.7829 21.2228 27.583 22.9346 26.6063C24.6464 25.6295 23.9358 21.2457 21.3473 16.8148C18.7589 12.3839 15.2728 9.58381 13.561 10.5606C11.8492 11.5373 12.5598 15.9211 15.1483 20.352Z" stroke="black"/>
<path d="M15.1482 16.8148C12.5598 21.2457 11.8491 25.6295 13.5609 26.6062C15.2727 27.583 18.7588 24.7828 21.3472 20.3519C23.9357 15.9211 24.6464 11.5373 22.9345 10.5605C21.2227 9.58376 17.7367 12.3839 15.1482 16.8148Z" stroke="black"/>
</g>
<defs>
<clipPath id="clip0_5_119">
<rect width="19.5994" height="17.2339" fill="white" transform="translate(8.44812 9.96643)"/>
</clipPath>
</defs>
</svg>
