<svg width="38" height="37" viewBox="0 0 38 37" fill="none" xmlns="http://www.w3.org/2000/svg">
<circle cx="18.6667" cy="18.4167" r="18.4167" fill="#61DAFB"/>
<g clip-path="url(#clip0_5_139)">
<path d="M10.8529 28.1675L9.11426 8.66669H28.2188L26.4784 28.1644L18.6549 30.3334L10.8529 28.1675Z" fill="#264DE4"/>
<path d="M24.9883 26.9229L26.4756 10.2611H18.6665V28.6755L24.9883 26.9229Z" fill="#2965F1"/>
<path d="M13.1002 17.4937L13.3145 19.8854H18.6667V17.4937H13.1002ZM12.8869 15.0445H18.6667V12.6528H12.6694L12.8869 15.0445ZM18.6667 23.7052L18.6562 23.708L15.9925 22.9887L15.8223 21.0812H13.4213L13.7564 24.8365L18.6557 26.1966L18.6667 26.1935V23.7052Z" fill="#EBEBEB"/>
<path d="M18.6584 17.4937V19.8854H21.6035L21.3259 22.9872L18.6584 23.7071V26.1954L23.5615 24.8365L23.5975 24.4324L24.1595 18.1359L24.2179 17.4937L24.6497 12.6528H18.6584V15.0445H22.0286L21.8109 17.4937H18.6584Z" fill="white"/>
</g>
<defs>
<clipPath id="clip0_5_139">
<rect width="21.6667" height="21.6667" fill="white" transform="translate(7.83325 8.66669)"/>
</clipPath>
</defs>
</svg>
