<svg width="38" height="37" viewBox="0 0 38 37" fill="none" xmlns="http://www.w3.org/2000/svg">
<circle cx="19.2499" cy="18.4167" r="18.4167" fill="#61DAFB"/>
<g clip-path="url(#clip0_5_132)">
<path d="M10.8584 28.1646L9.11279 8.57147H28.3039L26.5583 28.154L18.6925 30.3334" fill="#E44D26"/>
<path d="M18.7085 28.6671V10.1796H26.5531L25.0562 26.8951" fill="#F16529"/>
<path d="M12.6782 12.5758H18.7085V14.9773H15.3125L15.5347 17.4371H18.7085V19.8333H13.3341M13.4399 21.0393H15.8521L16.0213 22.9595L18.7085 23.6789V26.1862L13.7785 24.8109" fill="#EBEBEB"/>
<path d="M24.7174 12.5758H18.6978V14.9773H24.4953M24.2784 17.4371H18.6978V19.8386H21.66L21.3796 22.9595L18.6978 23.6789V26.1757L23.6172 24.8109" fill="white"/>
</g>
<defs>
<clipPath id="clip0_5_132">
<rect width="27.0833" height="27.0833" fill="white" transform="translate(5.16675 3.25)"/>
</clipPath>
</defs>
</svg>
