<svg width="38" height="37" viewBox="0 0 38 37" fill="none" xmlns="http://www.w3.org/2000/svg">
<circle cx="18.8333" cy="18.4167" r="18.4167" fill="#61DAFB"/>
<g clip-path="url(#clip0_5_127)">
<path d="M27.1124 10.1376H10.5543V26.6957H27.1124V10.1376Z" fill="#F7DF1E"/>
<path d="M21.6771 23.0736C22.0107 23.6182 22.4446 24.0185 23.212 24.0185C23.8568 24.0185 24.2686 23.6962 24.2686 23.251C24.2686 22.7175 23.8455 22.5285 23.1358 22.2181L22.7468 22.0512C21.624 21.5729 20.8781 20.9736 20.8781 19.7068C20.8781 18.5398 21.7673 17.6515 23.1568 17.6515C24.1461 17.6515 24.8573 17.9958 25.3698 18.8973L24.1582 19.6753C23.8914 19.1969 23.6037 19.0085 23.1568 19.0085C22.7011 19.0085 22.4123 19.2976 22.4123 19.6753C22.4123 20.142 22.7014 20.331 23.3689 20.6201L23.7579 20.7868C25.0799 21.3537 25.8264 21.9316 25.8264 23.231C25.8264 24.6319 24.7259 25.3994 23.248 25.3994C21.803 25.3994 20.8695 24.7108 20.4127 23.8082L21.6771 23.0736ZM16.1806 23.2084C16.4251 23.6421 16.6474 24.0087 17.182 24.0087C17.6932 24.0087 18.0157 23.8087 18.0157 23.031V17.7403H19.5716V23.0521C19.5716 24.6632 18.627 25.3965 17.2482 25.3965C16.0024 25.3965 15.281 24.7518 14.9141 23.9752L16.1806 23.2084Z" fill="#61DAFB"/>
</g>
<defs>
<clipPath id="clip0_5_127">
<rect width="16.5581" height="16.5581" fill="white" transform="translate(10.5543 10.1376)"/>
</clipPath>
</defs>
</svg>
