<svg width="59" height="59" viewBox="0 0 59 59" fill="none" xmlns="http://www.w3.org/2000/svg">
<path fill-rule="evenodd" clip-rule="evenodd" d="M29.5 59C45.7924 59 59 45.7924 59 29.5C59 13.2076 45.7924 0 29.5 0C13.2076 0 0 13.2076 0 29.5C0 45.7924 13.2076 59 29.5 59Z" fill="black"/>
<path fill-rule="evenodd" clip-rule="evenodd" d="M48.3473 46.7079H40.939V34.0899C40.939 30.6304 39.6245 28.6971 36.8863 28.6971C33.9075 28.6971 32.3512 30.709 32.3512 34.0899V46.7079H25.2117V22.6709H32.3512V25.9086C32.3512 25.9086 34.4978 21.9365 39.5987 21.9365C44.6971 21.9365 48.3473 25.0499 48.3473 31.4891V46.7079ZM16.6942 19.5234C14.2624 19.5234 12.2917 17.5373 12.2917 15.0879C12.2917 12.6384 14.2624 10.6523 16.6942 10.6523C19.1261 10.6523 21.0955 12.6384 21.0955 15.0879C21.0955 17.5373 19.1261 19.5234 16.6942 19.5234ZM13.0077 46.7079H20.4524V22.6709H13.0077V46.7079Z" fill="white"/>
</svg>
