<svg width="34" height="34" viewBox="0 0 34 34" fill="none" xmlns="http://www.w3.org/2000/svg">
<circle cx="17" cy="17" r="17" fill="#04303D"/>
<path d="M9.78738 26.0007L8.1825 8H25.8175L24.2109 25.9979L16.9892 28L9.78738 26.0007Z" fill="#264DE4"/>
<path d="M22.8355 24.8519L24.2084 9.47179H17V26.4697L22.8355 24.8519Z" fill="#2965F1"/>
<path d="M11.8617 16.148L12.0596 18.3557H17V16.148H11.8617ZM11.6648 13.8873H17V11.6796H11.4641L11.6648 13.8873ZM17 21.8817L16.9903 21.8843L14.5316 21.2204L14.3744 19.4596H12.1582L12.4675 22.9261L16.9899 24.1815L17 24.1787V21.8817Z" fill="#EBEBEB"/>
<path d="M16.9924 16.148V18.3557H19.711L19.4547 21.219L16.9924 21.8836V24.1804L21.5184 22.9261L21.5516 22.5531L22.0703 16.7409L22.1242 16.148L22.5228 11.6796H16.9924V13.8873H20.1033L19.9024 16.148H16.9924Z" fill="white"/>
</svg>
