<svg width="34" height="34" viewBox="0 0 34 34" fill="none" xmlns="http://www.w3.org/2000/svg">
<circle cx="17" cy="17" r="17" fill="#04303D"/>
<g clip-path="url(#clip0_5_62)">
<path d="M24.6422 9.3578H9.35779V24.6422H24.6422V9.3578Z" fill="#F7DF1E"/>
<path d="M19.625 21.2988C19.9329 21.8015 20.3335 22.171 21.0419 22.171C21.637 22.171 22.0172 21.8735 22.0172 21.4626C22.0172 20.9701 21.6266 20.7956 20.9715 20.5091L20.6125 20.355C19.576 19.9135 18.8875 19.3603 18.8875 18.191C18.8875 17.1138 19.7082 16.2938 20.9909 16.2938C21.9041 16.2938 22.5606 16.6116 23.0337 17.4437L21.9153 18.1619C21.669 17.7203 21.4034 17.5464 20.9909 17.5464C20.5702 17.5464 20.3036 17.8132 20.3036 18.1619C20.3036 18.5927 20.5705 18.7672 21.1867 19.034L21.5458 19.1879C22.7661 19.7112 23.4551 20.2447 23.4551 21.4441C23.4551 22.7372 22.4393 23.4456 21.0751 23.4456C19.7412 23.4456 18.8795 22.81 18.4578 21.9769L19.625 21.2988ZM14.5513 21.4233C14.777 21.8236 14.9822 22.162 15.4757 22.162C15.9476 22.162 16.2452 21.9774 16.2452 21.2595V16.3758H17.6815V21.2789C17.6815 22.7661 16.8095 23.443 15.5368 23.443C14.3868 23.443 13.7209 22.8479 13.3822 22.1311L14.5513 21.4233Z" fill="black"/>
</g>
<defs>
<clipPath id="clip0_5_62">
<rect width="15.2844" height="15.2844" fill="white" transform="translate(9.35779 9.3578)"/>
</clipPath>
</defs>
</svg>
