<svg width="34" height="34" viewBox="0 0 34 34" fill="none" xmlns="http://www.w3.org/2000/svg">
<circle cx="17" cy="17" r="17" fill="#04303D"/>
<g clip-path="url(#clip0_5_54)">
<path d="M16.844 18.5937C17.7345 18.5937 18.4565 17.8802 18.4565 17C18.4565 16.1198 17.7345 15.4063 16.844 15.4063C15.9534 15.4063 15.2314 16.1198 15.2314 17C15.2314 17.8802 15.9534 18.5937 16.844 18.5937Z" fill="#61DAFB"/>
<path d="M16.844 20.2651C21.6227 20.2651 25.4966 18.8032 25.4966 17C25.4966 15.1967 21.6227 13.7349 16.844 13.7349C12.0653 13.7349 8.19141 15.1967 8.19141 17C8.19141 18.8032 12.0653 20.2651 16.844 20.2651Z" stroke="#61DAFB"/>
<path d="M13.983 18.6325C16.3723 22.7226 19.5902 25.3073 21.1704 24.4057C22.7505 23.5041 22.0945 19.4575 19.7052 15.3675C17.3159 11.2774 14.0979 8.69266 12.5178 9.59429C10.9377 10.4959 11.5937 14.5425 13.983 18.6325Z" stroke="#61DAFB"/>
<path d="M13.9828 15.3675C11.5934 19.4575 10.9374 23.5041 12.5176 24.4057C14.0977 25.3073 17.3156 22.7226 19.705 18.6325C22.0943 14.5425 22.7503 10.4959 21.1702 9.59429C19.59 8.69266 16.3721 11.2774 13.9828 15.3675Z" stroke="#61DAFB"/>
</g>
<defs>
<clipPath id="clip0_5_54">
<rect width="18.0917" height="15.9083" fill="white" transform="translate(7.7981 9.04587)"/>
</clipPath>
</defs>
</svg>
