<svg width="59" height="59" viewBox="0 0 59 59" fill="none" xmlns="http://www.w3.org/2000/svg">
<g clip-path="url(#clip0_1_17)">
<path fill-rule="evenodd" clip-rule="evenodd" d="M29.5 59C45.7924 59 59 45.7924 59 29.5C59 13.2076 45.7924 0 29.5 0C13.2076 0 0 13.2076 0 29.5C0 45.7924 13.2076 59 29.5 59Z" fill="black"/>
<path fill-rule="evenodd" clip-rule="evenodd" d="M48.3472 46.7083H40.9389V34.0904C40.9389 30.6309 39.6244 28.6976 36.8862 28.6976C33.9074 28.6976 32.3511 30.7095 32.3511 34.0904V46.7083H25.2116V22.6713H32.3511V25.9091C32.3511 25.9091 34.4977 21.9369 39.5986 21.9369C44.6971 21.9369 48.3472 25.0504 48.3472 31.4896V46.7083ZM16.6941 19.5238C14.2623 19.5238 12.2917 17.5378 12.2917 15.0883C12.2917 12.6389 14.2623 10.6528 16.6941 10.6528C19.126 10.6528 21.0955 12.6389 21.0955 15.0883C21.0955 17.5378 19.126 19.5238 16.6941 19.5238ZM13.0076 46.7083H20.4523V22.6713H13.0076V46.7083Z" fill="#FAEBDE"/>
</g>
<defs>
<clipPath id="clip0_1_17">
<rect width="59" height="59" fill="white"/>
</clipPath>
</defs>
</svg>
