<svg width="59" height="59" viewBox="0 0 59 59" fill="none" xmlns="http://www.w3.org/2000/svg">
<g clip-path="url(#clip0_201_20)">
<path d="M29.5 59C45.7924 59 59 45.7924 59 29.5C59 13.2076 45.7924 0 29.5 0C13.2076 0 0 13.2076 0 29.5C0 45.7924 13.2076 59 29.5 59Z" fill="black"/>
<path d="M29.9 14L13.9 19.312L16.3404 39.008L29.9 46L43.4596 39.008L45.9 19.312L29.9 14Z" fill="#DD0031"/>
<path d="M29.9 14V17.552V17.536V33.744V46L43.4596 39.008L45.9 19.312L29.9 14Z" fill="#C3002F"/>
<path d="M29.9 17.536L19.8978 38.416H23.6272L25.6379 33.744H34.1277L36.1384 38.416H39.8678L29.9 17.536ZM32.8216 30.864H26.9784L29.9 24.32L32.8216 30.864Z" fill="white"/>
</g>
<defs>
<clipPath id="clip0_201_20">
<rect width="59" height="59" fill="white"/>
</clipPath>
</defs>
</svg>
