<svg width="59" height="59" viewBox="0 0 59 59" fill="none" xmlns="http://www.w3.org/2000/svg">
<g clip-path="url(#clip0_16_2)">
<path d="M29.5 59C45.7924 59 59 45.7924 59 29.5C59 13.2076 45.7924 0 29.5 0C13.2076 0 0 13.2076 0 29.5C0 45.7924 13.2076 59 29.5 59Z" fill="black"/>
<path d="M16.984 45.1189L14.199 13.8824H44.801L42.013 45.114L29.4813 48.5882L16.984 45.1189Z" fill="#264DE4"/>
<path d="M39.6263 43.1254L42.0087 16.4363H29.5V45.9327L39.6263 43.1254Z" fill="#2965F1"/>
<path d="M20.5835 28.0215L20.927 31.8525H29.5V28.0215H20.5835ZM20.2419 24.0985H29.5V20.2675H19.8936L20.2419 24.0985ZM29.5 37.9712L29.4832 37.9757L25.2166 36.8236L24.9438 33.7681H21.0981L21.6348 39.7835L29.4825 41.962L29.5 41.9572V37.9712Z" fill="#EBEBEB"/>
<path d="M29.4868 28.0215V31.8525H34.2044L33.7596 36.8212L29.4868 37.9745V41.9601L37.3408 39.7835L37.3984 39.1363L38.2985 29.0504L38.392 28.0215L39.0837 20.2675H29.4868V24.0985H34.8851L34.5365 28.0215H29.4868Z" fill="white"/>
</g>
<defs>
<clipPath id="clip0_16_2">
<rect width="59" height="59" fill="white"/>
</clipPath>
</defs>
</svg>
