<svg width="59" height="59" viewBox="0 0 59 59" fill="none" xmlns="http://www.w3.org/2000/svg">
<g clip-path="url(#clip0_16_8)">
<path d="M29.5 59C45.7924 59 59 45.7924 59 29.5C59 13.2076 45.7924 0 29.5 0C13.2076 0 0 13.2076 0 29.5C0 45.7924 13.2076 59 29.5 59Z" fill="black"/>
<path d="M16.0583 45.1142L13.2621 13.7298H44.0026L41.2065 45.0973L28.607 48.5882" fill="#E44D26"/>
<path d="M28.6324 45.9192V16.3057H41.198L38.8001 43.0808" fill="#F16529"/>
<path d="M18.973 20.144H28.6323V23.9908H23.1925L23.5485 27.9308H28.6323V31.7691H20.0237M20.1931 33.701H24.0569L24.328 36.7768L28.6323 37.929V41.9454L20.7354 39.7422" fill="#EBEBEB"/>
<path d="M38.2578 20.144H28.6153V23.9908H37.9019M37.5545 27.9308H28.6153V31.7776H33.3603L32.9112 36.7768L28.6153 37.929V41.9284L36.4953 39.7422" fill="white"/>
</g>
<defs>
<clipPath id="clip0_16_8">
<rect width="59" height="59" fill="white"/>
</clipPath>
</defs>
</svg>
