<svg width="59" height="59" viewBox="0 0 59 59" fill="none" xmlns="http://www.w3.org/2000/svg">
<g clip-path="url(#clip0_16_14)">
<path d="M29.5 59C45.7924 59 59 45.7924 59 29.5C59 13.2076 45.7924 0 29.5 0C13.2076 0 0 13.2076 0 29.5C0 45.7924 13.2076 59 29.5 59Z" fill="black"/>
<path d="M42.7615 16.2385H16.2385V42.7615H42.7615V16.2385Z" fill="#F7DF1E"/>
<path d="M34.0551 36.9597C34.5894 37.832 35.2846 38.4732 36.5139 38.4732C37.5466 38.4732 38.2063 37.957 38.2063 37.2439C38.2063 36.3893 37.5285 36.0865 36.3917 35.5893L35.7687 35.3219C33.9701 34.5558 32.7754 33.5958 32.7754 31.5667C32.7754 29.6975 34.1995 28.2745 36.4254 28.2745C38.01 28.2745 39.1493 28.826 39.9702 30.27L38.0295 31.5162C37.6021 30.7499 37.1412 30.4482 36.4254 30.4482C35.6953 30.4482 35.2327 30.9111 35.2327 31.5162C35.2327 32.2638 35.6959 32.5666 36.7651 33.0296L37.3883 33.2967C39.5059 34.2047 40.7015 35.1305 40.7015 37.2118C40.7015 39.4557 38.9388 40.685 36.5715 40.685C34.2568 40.685 32.7615 39.5821 32.0297 38.1364L34.0551 36.9597ZM25.2508 37.1757C25.6424 37.8704 25.9985 38.4576 26.8549 38.4576C27.6738 38.4576 28.1902 38.1373 28.1902 36.8915V28.4168H30.6826V36.9252C30.6826 39.5059 29.1694 40.6805 26.9609 40.6805C24.9653 40.6805 23.8098 39.6478 23.222 38.404L25.2508 37.1757Z" fill="black"/>
</g>
<defs>
<clipPath id="clip0_16_14">
<rect width="59" height="59" fill="white"/>
</clipPath>
</defs>
</svg>
