<svg width="59" height="59" viewBox="0 0 59 59" fill="none" xmlns="http://www.w3.org/2000/svg">
<g clip-path="url(#clip0_201_63)">
<path d="M29.5 59C45.7924 59 59 45.7924 59 29.5C59 13.2076 45.7924 0 29.5 0C13.2076 0 0 13.2076 0 29.5C0 45.7924 13.2076 59 29.5 59Z" fill="black"/>
<g clip-path="url(#clip1_201_63)">
<mask id="mask0_201_63" style="mask-type:luminance" maskUnits="userSpaceOnUse" x="14" y="22" width="32" height="16">
<path d="M14.45 30C14.45 34.1879 21.4121 37.5829 30 37.5829C38.5879 37.5829 45.5501 34.1879 45.5501 30C45.5501 25.8122 38.5879 22.4171 30 22.4171C21.4121 22.4171 14.45 25.8122 14.45 30Z" fill="white"/>
</mask>
<g mask="url(#mask0_201_63)">
<path d="M14.45 30C14.45 34.1879 21.4121 37.5829 30 37.5829C38.5879 37.5829 45.5501 34.1879 45.5501 30C45.5501 25.8122 38.5879 22.4171 30 22.4171C21.4121 22.4171 14.45 25.8122 14.45 30Z" fill="url(#paint0_radial_201_63)"/>
</g>
<mask id="mask1_201_63" style="mask-type:luminance" maskUnits="userSpaceOnUse" x="13" y="21" width="34" height="18">
<path d="M13.802 21.5536H46.1979V38.4464H13.802V21.5536Z" fill="white"/>
</mask>
<g mask="url(#mask1_201_63)">
<path d="M30 37.0199C38.2524 37.0199 44.9426 33.877 44.9426 30C44.9426 26.1231 38.2524 22.9801 30 22.9801C21.7475 22.9801 15.0574 26.1231 15.0574 30C15.0574 33.877 21.7475 37.0199 30 37.0199Z" fill="#777BB3"/>
</g>
<mask id="mask2_201_63" style="mask-type:luminance" maskUnits="userSpaceOnUse" x="13" y="21" width="34" height="18">
<path d="M13.802 21.5536H46.1979V38.4464H13.802V21.5536Z" fill="white"/>
</mask>
<g mask="url(#mask2_201_63)">
<path d="M22.8984 30.8704C23.577 30.8704 24.0836 30.7544 24.4041 30.5257C24.7212 30.2993 24.9402 29.9072 25.055 29.3602C25.1621 28.849 25.1213 28.492 24.9339 28.2993C24.7423 28.1026 24.328 28.0028 23.7026 28.0028H22.6181L22.017 30.8704H22.8984ZM19.3516 34.4027C19.3013 34.4027 19.2535 34.3819 19.2215 34.3458C19.1894 34.3097 19.1764 34.2623 19.186 34.2165L20.7793 26.6173C20.7947 26.5438 20.8641 26.4908 20.9449 26.4908H24.3788C25.4579 26.4908 26.2612 26.7624 26.7661 27.2982C27.2737 27.8369 27.4304 28.5898 27.232 29.536C27.1512 29.9216 27.0123 30.2796 26.8191 30.6001C26.6257 30.921 26.37 31.218 26.0592 31.4828C25.6871 31.8057 25.2659 32.0398 24.8086 32.1775C24.3585 32.3134 23.7804 32.3824 23.0905 32.3824H21.7L21.303 34.2761C21.2875 34.3496 21.2181 34.4027 21.1374 34.4027H19.3516Z" fill="black"/>
<path d="M22.7572 28.1592H23.7026C24.4574 28.1592 24.7196 28.3127 24.8087 28.4042C24.9565 28.5561 24.9844 28.8765 24.8894 29.3305C24.7826 29.8389 24.5848 30.1993 24.3012 30.4017C24.0109 30.6089 23.5389 30.7139 22.8985 30.7139H22.2216L22.7572 28.1592ZM24.3788 26.3343H20.9449C20.7833 26.3343 20.6445 26.4405 20.6136 26.5875L19.0204 34.1866C19.0012 34.2783 19.0271 34.3732 19.0912 34.4453C19.1553 34.5174 19.2508 34.5591 19.3516 34.5591H21.1373C21.2989 34.5591 21.4378 34.4529 21.4686 34.306L21.8391 32.5388H23.0905C23.7981 32.5388 24.3938 32.4672 24.8609 32.3262C25.3413 32.1815 25.7833 31.9362 26.1744 31.5971C26.4979 31.3212 26.7644 31.0115 26.9663 30.6765C27.1683 30.3414 27.3134 29.9677 27.3976 29.5658C27.6065 28.5698 27.4368 27.7722 26.8932 27.1953C26.3548 26.624 25.5088 26.3343 24.3788 26.3343ZM21.8122 31.0267H22.8985C23.6184 31.0267 24.1547 30.901 24.5071 30.6496C24.8595 30.3981 25.0972 29.9783 25.2207 29.3901C25.3388 28.8253 25.285 28.4268 25.0592 28.1946C24.8331 27.9624 24.381 27.8463 23.7026 27.8463H22.4791L21.8122 31.0267ZM24.3788 26.6472C25.4118 26.6472 26.1654 26.8985 26.6391 27.4011C27.1127 27.9038 27.2553 28.6054 27.0663 29.5062C26.9886 29.8773 26.857 30.2165 26.6718 30.5239C26.4864 30.8314 26.2442 31.1127 25.945 31.3677C25.5884 31.677 25.1923 31.8975 24.7564 32.0287C24.3206 32.1604 23.7654 32.2259 23.0905 32.2259H21.5609L21.1373 34.2463H19.3516L20.9449 26.6472H24.3788Z" fill="white"/>
<path d="M31.3264 32.3824C31.276 32.3824 31.2282 32.3615 31.1962 32.3254C31.1641 32.2894 31.1511 32.242 31.1607 32.1961L31.8655 28.8338C31.9325 28.514 31.916 28.2845 31.819 28.1875C31.7596 28.1283 31.5812 28.0288 31.0537 28.0288H29.7769L28.8908 32.2558C28.8753 32.3293 28.8059 32.3824 28.7251 32.3824H26.9535C26.9031 32.3824 26.8553 32.3615 26.8233 32.3254C26.7912 32.2894 26.7782 32.242 26.7878 32.1961L28.3811 24.597C28.3965 24.5235 28.466 24.4704 28.5467 24.4704H30.3184C30.3688 24.4704 30.4165 24.4913 30.4486 24.5273C30.4806 24.5634 30.4936 24.6108 30.484 24.6567L30.0995 26.4908H31.4731C32.5195 26.4908 33.229 26.6618 33.6423 27.0136C34.0636 27.3725 34.195 27.9464 34.033 28.7195L33.2918 32.2558C33.2763 32.3293 33.2069 32.3824 33.1261 32.3824H31.3264Z" fill="black"/>
<path d="M30.3184 24.314H28.5467C28.3851 24.314 28.2463 24.4201 28.2155 24.5671L26.6222 32.1663C26.603 32.258 26.629 32.3528 26.6931 32.4249C26.7572 32.497 26.8527 32.5387 26.9535 32.5387H28.7251C28.8867 32.5387 29.0256 32.4326 29.0564 32.2856L29.916 28.1852H31.0537C31.5803 28.1852 31.6908 28.2895 31.6953 28.294C31.7272 28.3258 31.7692 28.4734 31.6999 28.8039L30.9951 32.1663C30.9759 32.258 31.0018 32.3528 31.066 32.4249C31.1301 32.497 31.2256 32.5387 31.3264 32.5387H33.1261C33.2877 32.5387 33.4266 32.4326 33.4574 32.2856L34.1986 28.7494C34.3726 27.9193 34.2238 27.2966 33.7565 26.8985C33.3106 26.5188 32.5637 26.3343 31.4731 26.3343H30.3041L30.6496 24.6865C30.6688 24.5948 30.6429 24.4999 30.5788 24.4279C30.5147 24.3557 30.4192 24.314 30.3184 24.314ZM30.3184 24.6268L29.8948 26.6472H31.4731C32.4662 26.6472 33.1512 26.8078 33.5282 27.1288C33.9051 27.45 34.0181 27.9704 33.8674 28.6897L33.1261 32.2259H31.3264L32.0311 28.8636C32.1113 28.4812 32.0819 28.2203 31.9426 28.0812C31.8033 27.9421 31.507 27.8724 31.0537 27.8724H29.6377L28.7251 32.2259H26.9535L28.5467 24.6268H30.3184Z" fill="white"/>
<path d="M36.8363 30.8704C37.5149 30.8704 38.0215 30.7544 38.342 30.5257C38.6591 30.2994 38.8781 29.9073 38.9929 29.3602C39.1 28.849 39.0592 28.492 38.8717 28.2993C38.6801 28.1026 38.2658 28.0028 37.6404 28.0028H36.556L35.9548 30.8704H36.8363ZM33.2895 34.4027C33.2392 34.4027 33.1914 34.3819 33.1594 34.3458C33.1273 34.3097 33.1143 34.2623 33.1239 34.2165L34.7171 26.6173C34.7326 26.5438 34.802 26.4908 34.8828 26.4908H38.3166C39.3959 26.4908 40.1991 26.7624 40.704 27.2982C41.2116 27.8368 41.3683 28.5897 41.1699 29.536C41.089 29.9216 40.9501 30.2796 40.7569 30.6001C40.5635 30.921 40.3079 31.218 39.997 31.4828C39.6249 31.8057 39.2038 32.0398 38.7464 32.1775C38.2963 32.3134 37.7183 32.3824 37.0283 32.3824H35.6378L35.2409 34.2761C35.2255 34.3496 35.1561 34.4027 35.0752 34.4027H33.2895Z" fill="black"/>
<path d="M36.6951 28.1592H37.6404C38.3952 28.1592 38.6574 28.3127 38.7465 28.4042C38.8944 28.5561 38.9223 28.8765 38.8272 29.3305C38.7205 29.8389 38.5226 30.1993 38.239 30.4017C37.9487 30.6089 37.4767 30.7139 36.8363 30.7139H36.1595L36.6951 28.1592ZM38.3166 26.3343H34.8828C34.7212 26.3343 34.5824 26.4405 34.5515 26.5875L32.9583 34.1866C32.9391 34.2783 32.965 34.3732 33.0291 34.4453C33.0932 34.5174 33.1887 34.5591 33.2895 34.5591H35.0752C35.2367 34.5591 35.3757 34.4529 35.4065 34.306L35.777 32.5388H37.0283C37.736 32.5388 38.3317 32.4672 38.7988 32.3262C39.2791 32.1815 39.7212 31.9361 40.1124 31.597C40.4359 31.3211 40.7023 31.0115 40.9042 30.6765C41.1061 30.3414 41.2512 29.9677 41.3354 29.5658C41.5444 28.5697 41.3746 27.7721 40.831 27.1953C40.2926 26.624 39.4467 26.3343 38.3166 26.3343ZM35.7501 31.0267H36.8363C37.5563 31.0267 38.0925 30.901 38.4449 30.6496C38.7974 30.3981 39.035 29.9783 39.1585 29.3901C39.2767 28.8253 39.2229 28.4268 38.997 28.1946C38.7709 27.9624 38.3188 27.8463 37.6404 27.8463H36.4169L35.7501 31.0267ZM38.3166 26.6472C39.3496 26.6472 40.1032 26.8985 40.5769 27.4011C41.0506 27.9038 41.1932 28.6054 41.0042 29.5062C40.9264 29.8773 40.7948 30.2165 40.6096 30.5239C40.4242 30.8314 40.1821 31.1127 39.8829 31.3677C39.5263 31.677 39.1302 31.8975 38.6943 32.0287C38.2584 32.1604 37.7032 32.2259 37.0283 32.2259H35.4987L35.0752 34.2463H33.2895L34.8828 26.6472H38.3166Z" fill="white"/>
</g>
</g>
</g>
<defs>
<radialGradient id="paint0_radial_201_63" cx="0" cy="0" r="1" gradientUnits="userSpaceOnUse" gradientTransform="translate(23.7863 25.083) scale(20.4194 18.9291)">
<stop stop-color="#AEB2D5"/>
<stop offset="0.3" stop-color="#AEB2D5"/>
<stop offset="0.75" stop-color="#484C89"/>
<stop offset="1" stop-color="#484C89"/>
</radialGradient>
<clipPath id="clip0_201_63">
<rect width="59" height="59" fill="white"/>
</clipPath>
<clipPath id="clip1_201_63">
<rect width="32" height="16" fill="white" transform="translate(14 22)"/>
</clipPath>
</defs>
</svg>
