<svg width="59" height="59" viewBox="0 0 59 59" fill="none" xmlns="http://www.w3.org/2000/svg">
<path d="M29.5 59C45.7924 59 59 45.7924 59 29.5C59 13.2076 45.7924 0 29.5 0C13.2076 0 0 13.2076 0 29.5C0 45.7924 13.2076 59 29.5 59Z" fill="black"/>
<path d="M29.2292 32.2655C30.7745 32.2655 32.0274 31.0274 32.0274 29.5C32.0274 27.9726 30.7745 26.7345 29.2292 26.7345C27.6838 26.7345 26.4309 27.9726 26.4309 29.5C26.4309 31.0274 27.6838 32.2655 29.2292 32.2655Z" fill="#61DAFB"/>
<path d="M29.2293 35.1659C37.5217 35.1659 44.2441 32.6291 44.2441 29.5C44.2441 26.3707 37.5217 23.8341 29.2293 23.8341C20.9368 23.8341 14.2145 26.3707 14.2145 29.5C14.2145 32.6291 20.9368 35.1659 29.2293 35.1659Z" stroke="#61DAFB"/>
<path d="M24.2647 32.3329C28.4108 39.4304 33.9948 43.9156 36.7369 42.3511C39.4788 40.7865 38.3405 33.7645 34.1944 26.6672C30.0482 19.5696 24.464 15.0843 21.7221 16.6489C18.9802 18.2135 20.1185 25.2355 24.2647 32.3329Z" stroke="#61DAFB"/>
<path d="M24.2642 26.6672C20.1179 33.7645 18.9796 40.7865 21.7217 42.3511C24.4636 43.9156 30.0476 39.4304 34.1939 32.3329C38.3401 25.2355 39.4784 18.2135 36.7365 16.6489C33.9944 15.0843 28.4104 19.5696 24.2642 26.6672Z" stroke="#61DAFB"/>
</svg>
